HIERARCHY
ROOT hip
{
  OFFSET 0 0 0
  CHANNELS 6 Xposition Yposition Zposition Zrotation Yrotation Xrotation
  JOINT abdomen
  {
    OFFSET 0 20.6881 -0.73152
    CHANNELS 3 Zrotation Xrotation Yrotation
    JOINT chest
    {
      OFFSET 0 11.7043 -0.48768
      CHANNELS 3 Zrotation Xrotation Yrotation
      JOINT neck
      {
        OFFSET 0 22.1894 -2.19456
        CHANNELS 3 Zrotation Xrotation Yrotation
        JOINT head
        {
          OFFSET -0.24384 7.07133 1.2192
          CHANNELS 3 Zrotation Xrotation Yrotation
          JOINT leftEye
          {
            OFFSET 4.14528 8.04674 8.04672
            CHANNELS 3 Zrotation Xrotation Yrotation
            End Site
            {
              OFFSET 1 0 0
            }
          }
          JOINT rightEye
          {
            OFFSET -3.6576 8.04674 8.04672
            CHANNELS 3 Zrotation Xrotation Yrotation
            End Site
            {
              OFFSET 1 0 0
            }
          }
        }
      }
      JOINT rCollar
      {
        OFFSET -2.68224 19.2634 -4.8768
        CHANNELS 3 Zrotation Xrotation Yrotation
        JOINT rShldr
        {
          OFFSET -8.77824 -1.95073 1.46304
          CHANNELS 3 Zrotation Xrotation Yrotation
          JOINT rForeArm
          {
            OFFSET -28.1742 -1.7115 0.48768
            CHANNELS 3 Zrotation Xrotation Yrotation
            JOINT rHand
            {
              OFFSET -22.5879 0.773209 7.07136
              CHANNELS 3 Zrotation Xrotation Yrotation
              JOINT rThumb1
              {
                OFFSET -1.2192 -0.487915 3.41376
                CHANNELS 3 Zrotation Xrotation Yrotation
                JOINT rThumb2
                {
                  OFFSET -3.37035 -0.52449 3.41376
                  CHANNELS 3 Zrotation Xrotation Yrotation
                  End Site
                  {
                    OFFSET -1.78271 -1.18214 1.43049
                  }
                }
              }
              JOINT rIndex1
              {
                OFFSET -7.75947 0.938293 5.60832
                CHANNELS 3 Zrotation Xrotation Yrotation
                JOINT rIndex2
                {
                  OFFSET -2.54057 -0.884171 1.56538
                  CHANNELS 3 Zrotation Xrotation Yrotation
                  End Site
                  {
                    OFFSET -1.62519 -0.234802 1.16502
                  }
                }
              }
              JOINT rMid1
              {
                OFFSET -8.24714 1.18213 3.41376
                CHANNELS 3 Zrotation Xrotation Yrotation
                JOINT rMid2
                {
                  OFFSET -3.10165 -0.590103 1.0647
                  CHANNELS 3 Zrotation Xrotation Yrotation
                  End Site
                  {
                    OFFSET -2.48547 -0.328903 0.83742
                  }
                }
              }
              JOINT rRing1
              {
                OFFSET -8.82822 0.546677 1.51678
                CHANNELS 3 Zrotation Xrotation Yrotation
                JOINT rRing2
                {
                  OFFSET -2.60934 -0.819778 -0.0198488
                  CHANNELS 3 Zrotation Xrotation Yrotation
                  End Site
                  {
                    OFFSET -2.33842 -0.294052 0.168128
                  }
                }
              }
              JOINT rPinky1
              {
                OFFSET -8.27202 -0.0477905 -0.4584
                CHANNELS 3 Zrotation Xrotation Yrotation
                JOINT rPinky2
                {
                  OFFSET -1.82734 -0.647385 -0.700984
                  CHANNELS 3 Zrotation Xrotation Yrotation
                  End Site
                  {
                    OFFSET -1.69225 -0.51767 -0.607171
                  }
                }
              }
            }
          }
        }
      }
      JOINT lCollar
      {
        OFFSET 2.68224 19.2634 -4.8768
        CHANNELS 3 Zrotation Xrotation Yrotation
        JOINT lShldr
        {
          OFFSET 8.77824 -1.95073 1.46304
          CHANNELS 3 Zrotation Xrotation Yrotation
          JOINT lForeArm
          {
            OFFSET 28.1742 -1.7115 0.48768
            CHANNELS 3 Zrotation Xrotation Yrotation
            JOINT lHand
            {
              OFFSET 22.5879 0.773209 7.07136
              CHANNELS 3 Zrotation Xrotation Yrotation
              JOINT lThumb1
              {
                OFFSET 1.2192 -0.487915 3.41376
                CHANNELS 3 Zrotation Xrotation Yrotation
                JOINT lThumb2
                {
                  OFFSET 3.37035 -0.52449 3.41376
                  CHANNELS 3 Zrotation Xrotation Yrotation
                  End Site
                  {
                    OFFSET 1.78271 -1.18214 1.43049
                  }
                }
              }
              JOINT lIndex1
              {
                OFFSET 7.75947 0.938293 5.60832
                CHANNELS 3 Zrotation Xrotation Yrotation
                JOINT lIndex2
                {
                  OFFSET 2.54057 -0.884171 1.56538
                  CHANNELS 3 Zrotation Xrotation Yrotation
                  End Site
                  {
                    OFFSET 1.62519 -0.234802 1.16502
                  }
                }
              }
              JOINT lMid1
              {
                OFFSET 8.24714 1.18213 3.41376
                CHANNELS 3 Zrotation Xrotation Yrotation
                JOINT lMid2
                {
                  OFFSET 3.10165 -0.590103 1.0647
                  CHANNELS 3 Zrotation Xrotation Yrotation
                  End Site
                  {
                    OFFSET 2.48547 -0.328903 0.83742
                  }
                }
              }
              JOINT lRing1
              {
                OFFSET 8.82822 0.546677 1.51678
                CHANNELS 3 Zrotation Xrotation Yrotation
                JOINT lRing2
                {
                  OFFSET 2.60934 -0.819778 -0.0198488
                  CHANNELS 3 Zrotation Xrotation Yrotation
                  End Site
                  {
                    OFFSET 2.33842 -0.294052 0.168128
                  }
                }
              }
              JOINT lPinky1
              {
                OFFSET 8.27202 -0.0477905 -0.4584
                CHANNELS 3 Zrotation Xrotation Yrotation
                JOINT lPinky2
                {
                  OFFSET 1.82734 -0.647385 -0.700984
                  CHANNELS 3 Zrotation Xrotation Yrotation
                  End Site
                  {
                    OFFSET 1.69225 -0.51767 -0.607171
                  }
                }
              }
            }
          }
        }
      }
    }
  }
  JOINT rButtock
  {
    OFFSET -8.77824 4.35084 1.2192
    CHANNELS 3 Zrotation Xrotation Yrotation
    JOINT rThigh
    {
      OFFSET 0 -1.70687 -2.19456
      CHANNELS 3 Zrotation Xrotation Yrotation
      JOINT rShin
      {
        OFFSET 0 -36.8199 0.73152
        CHANNELS 3 Zrotation Xrotation Yrotation
        JOINT rFoot
        {
          OFFSET 0.73152 -45.1104 -5.12064
          CHANNELS 3 Zrotation Xrotation Yrotation
          End Site
          {
            OFFSET -1.1221 -3.69964 12.103
          }
        }
      }
    }
  }
  JOINT lButtock
  {
    OFFSET 8.77824 4.35084 1.2192
    CHANNELS 3 Zrotation Xrotation Yrotation
    JOINT lThigh
    {
      OFFSET 0 -1.70687 -2.19456
      CHANNELS 3 Zrotation Xrotation Yrotation
      JOINT lShin
      {
        OFFSET 0 -36.8199 0.73152
        CHANNELS 3 Zrotation Xrotation Yrotation
        JOINT lFoot
        {
          OFFSET -0.73152 -45.1104 -5.12064
          CHANNELS 3 Zrotation Xrotation Yrotation
          End Site
          {
            OFFSET 1.1221 -3.69964 12.103
          }
        }
      }
    }
  }
}
MOTION
Frames:	8
Frame Time:	0.00833333
34.8636 76.7598 -29.543 66.1252 -88.2488 -52.9707 1.19897 42.821 -5.42178 -2.62337 -7.29202 -1.89797 2.8736 17.1817 1.65154 1.97972 -62.5629 3.40819 -0.0 0.0 0.0 -0.0 0.0 0.0 -5.43902e-14 4.55327e-13 -8.64403e-14 79.7023 30.4848 5.33394 -20.6744 -13.8844 40.3434 -0.00930905 -2.7536 -0.387294 7.95733e-10 8.25885e-10 -2.97001e-10 1.37968e-09 1.42582e-09 -5.11008e-10 7.9574e-10 8.2588e-10 -2.97006e-10 7.73091 5.47488 0.417314 7.95737e-10 8.2588e-10 -2.97002e-10 2.90554 0.965183 0.102902 7.95744e-10 8.2588e-10 -2.97001e-10 10.2786 0.731801 0.0259123 7.95731e-10 8.25881e-10 -2.96998e-10 2.22167 -0.733487 -0.20892 -5.45474e-14 4.55326e-13 -8.66732e-14 -71.5878 24.8277 -8.40586 16.4384 -9.10103 -30.6037 0.601856 -21.4864 3.17133 -4.12767e-10 4.98828e-10 -4.40056e-10 -7.1188e-10 8.58183e-10 -7.65477e-10 -4.12771e-10 4.98829e-10 -4.40054e-10 -7.73091 5.47488 -0.417314 -4.12767e-10 4.98828e-10 -4.40056e-10 -2.90554 0.965183 -0.102902 -4.12775e-10 4.98828e-10 -4.40061e-10 -10.2786 0.731801 -0.0259123 -4.12766e-10 4.98829e-10 -4.4007e-10 -2.22167 -0.733487 0.20892 -2.03217e-16 0.0 -3.88251e-19 2.09253 -67.4375 6.11068 -0.727597 51.4332 0.735904 2.19352 21.0811 -9.70477 2.03217e-16 0.0 3.88251e-19 5.97371 -41.5196 16.4447 1.9563 70.9507 -3.09514 2.07328 11.0478 -8.85954
35.8035 76.8055 -29.4675 65.283 -88.1794 -52.0087 1.15632 42.9108 -5.42102 -2.59876 -7.33471 -1.89825 2.87964 17.19 1.64629 1.91451 -62.6459 3.35516 -0.0 0.0 0.0 -0.0 0.0 0.0 -2.56505e-14 3.25211e-13 -3.33205e-14 79.661 30.5681 5.40991 -20.713 -13.9358 40.4401 -0.00921524 -2.73977 -0.385346 1.62806e-10 8.53653e-11 -5.29174e-11 2.83128e-10 1.46165e-10 -9.08002e-11 1.62811e-10 8.53596e-11 -5.2919e-11 7.73091 5.47488 0.417314 1.6281e-10 8.53597e-11 -5.292e-11 2.90554 0.965183 0.102902 1.62818e-10 8.53592e-11 -5.29183e-11 10.2786 0.731801 0.0259123 1.62803e-10 8.53601e-11 -5.29166e-11 2.22167 -0.733487 -0.20892 -2.5824e-14 3.25207e-13 -3.35965e-14 -71.4953 24.8718 -8.54522 16.4737 -9.13488 -30.6792 0.600996 -21.4719 3.16899 -4.35935e-10 1.95667e-10 1.4843e-10 -7.56968e-10 3.34037e-10 2.50992e-10 -4.35941e-10 1.95667e-10 1.48426e-10 -7.73091 5.47488 -0.417314 -4.35936e-10 1.95666e-10 1.48427e-10 -2.90554 0.965183 -0.102902 -4.35945e-10 1.95667e-10 1.48425e-10 -10.2786 0.731801 -0.0259123 -4.35935e-10 1.95668e-10 1.48419e-10 -2.22167 -0.733487 0.20892 -2.03217e-16 0.0 -3.88251e-19 2.08057 -67.4588 6.56112 -0.68668 50.2581 0.677363 2.52051 21.6545 -10.4831 2.03217e-16 0.0 3.88251e-19 5.79518 -41.6949 16.5591 1.86111 70.3257 -3.00976 1.90786 10.0851 -8.71004
36.7541 76.8688 -29.3953 64.7486 -88.1216 -51.3507 1.10447 43.0056 -5.39763 -2.56821 -7.37597 -1.89428 2.88931 17.207 1.63939 1.87286 -62.7409 3.31289 -0.0 0.0 0.0 -0.0 0.0 0.0 -6.87386e-15 2.57478e-13 2.93207e-15 79.6074 30.6351 5.50329 -20.7448 -13.9782 40.5201 -0.0091776 -2.73421 -0.384563 -1.57212e-10 -2.99866e-10 6.50487e-11 -2.71369e-10 -5.19254e-10 1.1202e-10 -1.57209e-10 -2.99871e-10 6.50487e-11 7.73091 5.47488 0.417314 -1.57207e-10 -2.99871e-10 6.50455e-11 2.90554 0.965183 0.102902 -1.572e-10 -2.99872e-10 6.50479e-11 10.2786 0.731801 0.0259123 -1.57216e-10 -2.99871e-10 6.50487e-11 2.22167 -0.733487 -0.20892 -7.0415e-15 2.57473e-13 2.6339e-15 -71.4025 24.9313 -8.68348 16.5114 -9.17111 -30.7597 0.600389 -21.4618 3.16733 -4.12205e-10 4.74237e-11 4.85973e-10 -7.18994e-10 7.84007e-11 8.34677e-10 -4.1221e-10 4.74237e-11 4.85966e-10 -7.73091 5.47488 -0.417314 -4.12205e-10 4.74232e-11 4.8597e-10 -2.90554 0.965183 -0.102902 -4.12215e-10 4.74238e-11 4.85969e-10 -10.2786 0.731801 -0.0259123 -4.12205e-10 4.74253e-11 4.85963e-10 -2.22167 -0.733487 0.20892 -2.03217e-16 0.0 -3.88251e-19 2.06754 -67.4716 7.02656 -0.647074 49.046 0.615507 2.91247 22.2789 -11.3843 2.03217e-16 0.0 3.88251e-19 5.67136 -41.9592 16.71 1.78553 69.7985 -2.9406 1.76979 9.25725 -8.61191
37.7136 76.9408 -29.3249 64.3966 -88.0752 -50.8695 1.0414 43.1071 -5.35105 -2.52625 -7.41522 -1.88603 2.90377 17.2365 1.63196 1.86807 -62.8581 3.29182 -0.0 0.0 0.0 -0.0 0.0 0.0 -1.44157e-15 2.3055e-13 1.44468e-14 79.5317 30.6879 5.62724 -20.7676 -14.0088 40.5779 -0.00921746 -2.74016 -0.3854 2.75765e-11 -9.50853e-11 -3.83608e-11 4.87521e-11 -1.64535e-10 -6.69249e-11 2.75781e-11 -9.50891e-11 -3.83614e-11 7.73091 5.47488 0.417314 2.75803e-11 -9.50891e-11 -3.83616e-11 2.90554 0.965183 0.102902 2.75856e-11 -9.50896e-11 -3.83599e-11 10.2786 0.731801 0.0259123 2.75717e-11 -9.50888e-11 -3.83577e-11 2.22167 -0.733487 -0.20892 -1.56513e-15 2.30546e-13 1.41572e-14 -71.3088 25.0106 -8.82112 16.5533 -9.21163 -30.8494 0.600044 -21.456 3.16639 -3.33256e-10 1.72209e-10 4.41923e-10 -5.82742e-10 2.95939e-10 7.60119e-10 -3.33261e-10 1.72209e-10 4.41917e-10 -7.73091 5.47488 -0.417314 -3.33256e-10 1.72209e-10 4.41921e-10 -2.90554 0.965183 -0.102902 -3.33265e-10 1.72209e-10 4.4192e-10 -10.2786 0.731801 -0.0259123 -3.33255e-10 1.72211e-10 4.41914e-10 -2.22167 -0.733487 0.20892 -2.03217e-16 0.0 -3.88251e-19 2.07295 -67.4672 7.54536 -0.608441 47.7617 0.547959 3.40337 22.9666 -12.4838 2.03217e-16 0.0 3.88251e-19 5.61394 -42.3323 16.895 1.72986 69.3872 -2.88715 1.66094 8.58613 -8.5899
38.6794 77.0174 -29.2568 64.3905 -88.0355 -50.7265 0.973848 43.2192 -5.28591 -2.47537 -7.45474 -1.87409 2.92331 17.2742 1.62354 1.88428 -62.9922 3.2812 -0.0 0.0 0.0 -0.0 0.0 0.0 -2.60837e-15 2.19707e-13 1.35733e-14 79.4371 30.7286 5.7755 -20.7835 -14.0301 40.6178 -0.00929607 -2.7518 -0.387041 5.00757e-10 4.4361e-10 -2.70896e-10 8.68511e-10 7.67644e-10 -4.68643e-10 5.00758e-10 4.43609e-10 -2.70899e-10 7.73091 5.47488 0.417314 5.0076e-10 4.43608e-10 -2.70893e-10 2.90554 0.965183 0.102902 5.00763e-10 4.43608e-10 -2.70893e-10 10.2786 0.731801 0.0259123 5.00752e-10 4.43609e-10 -2.70888e-10 2.22167 -0.733487 -0.20892 -2.65959e-15 2.19705e-13 1.33124e-14 -71.2138 25.1066 -8.95977 16.5992 -9.25614 -30.9479 0.599654 -21.4494 3.16532 -2.09503e-10 4.55214e-10 1.9309e-10 -3.67594e-10 7.87933e-10 3.32581e-10 -2.09506e-10 4.55215e-10 1.93088e-10 -7.73091 5.47488 -0.417314 -2.09502e-10 4.55214e-10 1.93091e-10 -2.90554 0.965183 -0.102902 -2.09509e-10 4.55215e-10 1.9309e-10 -10.2786 0.731801 -0.0259123 -2.09499e-10 4.55217e-10 1.93082e-10 -2.22167 -0.733487 0.20892 -2.03217e-16 0.0 -3.88251e-19 2.09485 -67.4494 8.1113 -0.572353 46.4173 0.476854 3.99569 23.7105 -13.7575 2.03217e-16 0.0 3.88251e-19 5.61901 -42.8099 17.1163 1.69027 69.0716 -2.84562 1.57757 8.08216 -8.6143
39.6491 77.0933 -29.189 64.8245 -87.9974 -51.0206 0.900578 43.3351 -5.1995 -2.42595 -7.49414 -1.85809 2.94511 17.3145 1.61198 1.90366 -63.1245 3.26587 -0.0 0.0 0.0 -0.0 0.0 0.0 -7.82529e-15 2.9204e-13 8.75817e-15 79.3436 30.751 5.92305 -20.7959 -14.0469 40.649 -0.00939395 -2.76622 -0.389072 9.92874e-10 9.80166e-10 -4.87415e-10 1.72089e-09 1.69601e-09 -8.42531e-10 9.92875e-10 9.80168e-10 -4.8742e-10 7.73091 5.47488 0.417314 9.92876e-10 9.80167e-10 -4.87408e-10 2.90554 0.965183 0.102902 9.92876e-10 9.80167e-10 -4.87409e-10 10.2786 0.731801 0.0259123 9.92868e-10 9.80169e-10 -4.87401e-10 2.22167 -0.733487 -0.20892 -7.80466e-15 2.92039e-13 8.53221e-15 -71.1184 25.212 -9.09736 16.6449 -9.30051 -31.0461 0.599431 -21.4456 3.16471 -5.18534e-11 7.16797e-10 -9.91687e-11 -9.32459e-11 1.24293e-09 -1.69602e-10 -5.18547e-11 7.16799e-10 -9.91681e-11 -7.73091 5.47488 -0.417314 -5.18521e-11 7.16799e-10 -9.91663e-11 -2.90554 0.965183 -0.102902 -5.18567e-11 7.16799e-10 -9.91679e-11 -10.2786 0.731801 -0.0259123 -5.18463e-11 7.16801e-10 -9.91777e-11 -2.22167 -0.733487 0.20892 -2.03217e-16 0.0 -3.88251e-19 2.08886 -67.4346 8.6409 -0.540269 45.0831 0.40709 4.64328 24.4717 -15.0685 2.03217e-16 0.0 3.88251e-19 5.6713 -43.3489 17.3848 1.66156 68.8263 -2.8125 1.50926 7.68935 -8.64691
40.6145 77.1668 -29.1203 65.5197 -87.9647 -51.5812 0.820386 43.448 -5.08914 -2.38839 -7.53301 -1.83764 2.96637 17.3517 1.59511 1.90815 -63.236 3.23044 -0.0 0.0 0.0 -0.0 0.0 0.0 -1.45434e-14 5.14641e-13 8.44835e-15 79.2708 30.749 6.04479 -20.8084 -14.0637 40.6804 -0.00949104 -2.78045 -0.391077 1.23447e-09 1.17853e-09 -5.42774e-10 2.13887e-09 2.0393e-09 -9.37984e-10 1.23447e-09 1.17853e-09 -5.42781e-10 7.73091 5.47488 0.417314 1.23447e-09 1.17853e-09 -5.42765e-10 2.90554 0.965183 0.102902 1.23447e-09 1.17853e-09 -5.42767e-10 10.2786 0.731801 0.0259123 1.23446e-09 1.17853e-09 -5.42758e-10 2.22167 -0.733487 -0.20892 -1.44801e-14 5.14641e-13 8.24956e-15 -71.0235 25.3195 -9.23179 16.6861 -9.34061 -31.1348 0.599584 -21.4482 3.16513 1.28785e-10 7.77318e-10 -2.73499e-10 2.20608e-10 1.34946e-09 -4.68092e-10 1.28784e-10 7.7732e-10 -2.73496e-10 -7.73091 5.47488 -0.417314 1.28787e-10 7.7732e-10 -2.73496e-10 -2.90554 0.965183 -0.102902 1.28783e-10 7.7732e-10 -2.73497e-10 -10.2786 0.731801 -0.0259123 1.28794e-10 7.77322e-10 -2.73509e-10 -2.22167 -0.733487 0.20892 -2.03217e-16 0.0 -3.88251e-19 2.01227 -67.4402 9.05232 -0.512554 43.8293 0.342722 5.28798 25.2182 -16.2753 2.03217e-16 0.0 3.88251e-19 5.75546 -43.9062 17.7109 1.6391 68.6262 -2.78488 1.44681 7.35154 -8.65009
41.5725 77.2327 -29.0522 66.569 -87.9411 -52.5021 0.731678 43.5584 -4.94892 -2.3656 -7.5727 -1.81166 2.98877 17.3879 1.56957 1.898 -63.3287 3.16771 -0.0 0.0 0.0 -0.0 0.0 0.0 -2.9459e-14 1.06812e-12 1.14134e-14 79.2301 30.7086 6.13392 -20.8226 -14.083 40.7164 -0.00959983 -2.79639 -0.393323 1.06848e-09 7.83829e-10 -3.03227e-10 1.8498e-09 1.35666e-09 -5.23923e-10 1.06848e-09 7.83833e-10 -3.03233e-10 7.73091 5.47488 0.417314 1.06848e-09 7.83833e-10 -3.03218e-10 2.90554 0.965183 0.102902 1.06848e-09 7.83834e-10 -3.03221e-10 10.2786 0.731801 0.0259123 1.06847e-09 7.83835e-10 -3.03215e-10 2.22167 -0.733487 -0.20892 -2.93937e-14 1.06812e-12 1.12317e-14 -70.9197 25.4349 -9.37569 16.7209 -9.37457 -31.2098 0.600184 -21.4583 3.16677 4.14075e-10 4.68627e-10 -2.66883e-10 7.15338e-10 8.16766e-10 -4.53142e-10 4.14072e-10 4.68629e-10 -2.66878e-10 -7.73091 5.47488 -0.417314 4.14076e-10 4.68628e-10 -2.66881e-10 -2.90554 0.965183 -0.102902 4.14071e-10 4.68629e-10 -2.66879e-10 -10.2786 0.731801 -0.0259123 4.14082e-10 4.68631e-10 -2.66893e-10 -2.22167 -0.733487 0.20892 -2.03217e-16 0.0 -3.88251e-19 1.84491 -67.4553 9.35573 -0.486148 42.5828 0.276619 6.00088 26.0697 -17.482 2.03217e-16 0.0 3.88251e-19 5.87674 -44.4891 18.1122 1.62223 68.4687 -2.76173 1.39319 7.09401 -8.60769
